<svg width="40" height="40" viewBox="0 0 40 40" fill="none" xmlns="http://www.w3.org/2000/svg">
<path d="M20.044 40H19.956C8.95236 40 0 31.0476 0 20.044V19.956C0 8.95236 8.95236 0 19.956 0H20.044C31.0476 0 40 8.95236 40 19.956V20.044C40 31.0476 31.0476 40 20.044 40ZM19.956 1.35396C9.69839 1.35396 1.35396 9.69839 1.35396 19.956V20.044C1.35396 30.3016 9.69839 38.646 19.956 38.646H20.044C30.3016 38.646 38.646 30.3016 38.646 20.044V19.956C38.646 9.69839 30.3016 1.35396 20.044 1.35396H19.956Z" fill="white"/>
<path d="M7.99605 19.3399C8.05021 19.3128 8.10439 19.2871 8.15719 19.2627C9.07518 18.8375 10.0053 18.4395 10.9342 18.0414C10.9843 18.0414 11.0682 17.9832 11.1156 17.9642C11.1873 17.9331 11.2591 17.9033 11.3309 17.8722C11.469 17.8126 11.6071 17.7544 11.7438 17.6948C12.02 17.577 12.2949 17.4592 12.5711 17.3414C13.1221 17.1058 13.6732 16.8703 14.2243 16.6333C15.3264 16.1621 16.4299 15.6896 17.532 15.2184C18.6341 14.7472 19.7376 14.2747 20.8397 13.8035C21.9418 13.3323 23.0453 12.8598 24.1474 12.3886C25.2495 11.9175 26.3531 11.4449 27.4552 10.9738C27.7002 10.8682 27.9656 10.7111 28.2283 10.6651C28.449 10.6258 28.6642 10.55 28.8863 10.508C29.3074 10.4281 29.7718 10.3956 30.1753 10.5703C30.3147 10.6312 30.4433 10.7165 30.5503 10.8235C31.0621 11.3298 30.9903 12.1612 30.882 12.8734C30.1279 17.837 29.3737 22.8019 28.6182 27.7656C28.5153 28.4466 28.3745 29.194 27.837 29.6245C27.382 29.9888 26.7348 30.0294 26.1729 29.875C25.6111 29.7193 25.1155 29.393 24.6294 29.0721C22.6134 27.7371 20.596 26.4021 18.58 25.0671C18.1007 24.7503 17.5672 24.336 17.5726 23.7605C17.5753 23.4139 17.7825 23.1052 17.9937 22.8304C19.7457 20.5449 22.2736 18.9743 24.1542 16.7944C24.4196 16.4871 24.6281 15.932 24.2639 15.7546C24.0472 15.649 23.7981 15.7925 23.6004 15.9292C21.1146 17.6555 18.6301 19.3832 16.1442 21.1095C15.3332 21.6727 14.4829 22.2522 13.5053 22.3903C12.6307 22.5149 11.7506 22.2712 10.9044 22.022C10.1949 21.8135 9.48676 21.5996 8.78135 21.3789C8.4063 21.2625 8.01907 21.1366 7.72932 20.8725C7.43957 20.6085 7.27306 20.1644 7.44772 19.8124C7.55739 19.5917 7.76997 19.4523 7.99337 19.3385L7.99605 19.3399Z" fill="white"/>
</svg>
