<svg width="40" height="40" viewBox="0 0 40 40" fill="none" xmlns="http://www.w3.org/2000/svg">
<path d="M20.044 40H19.956C8.95238 40 0 31.0476 0 20.044V19.956C0 8.95236 8.95238 0 19.956 0H20.044C31.0476 0 40 8.95236 40 19.956V20.044C40 31.0476 31.0476 40 20.044 40ZM19.956 1.35396C9.69841 1.35396 1.35396 9.69839 1.35396 19.956V20.044C1.35396 30.3016 9.69841 38.646 19.956 38.646H20.044C30.3016 38.646 38.646 30.3016 38.646 20.044V19.956C38.646 9.69839 30.3016 1.35396 20.044 1.35396H19.956Z" fill="white"/>
<path d="M20 16.5107C18.0671 16.5107 16.5087 18.084 16.5087 20.002C16.5087 21.9199 18.0821 23.4932 20 23.4932C21.9179 23.4932 23.4913 21.9199 23.4913 20.002C23.4913 18.084 21.9179 16.5107 20 16.5107ZM30.4888 20.002C30.4888 18.5485 30.4888 17.125 30.4139 15.6716C30.3389 13.9934 29.9493 12.495 28.7207 11.2813C27.492 10.0526 26.0086 9.66302 24.3304 9.5881C22.8769 9.51318 21.4534 9.51318 20 9.51318C18.5466 9.51318 17.1231 9.51318 15.6696 9.5881C13.9914 9.66302 12.493 10.0526 11.2793 11.2813C10.0507 12.51 9.66107 13.9934 9.58615 15.6716C9.51123 17.125 9.51123 18.5485 9.51123 20.002C9.51123 21.4554 9.51123 22.8789 9.58615 24.3323C9.66107 26.0105 10.0507 27.5089 11.2793 28.7226C12.508 29.9513 13.9914 30.3409 15.6696 30.4158C17.1231 30.4907 18.5466 30.4907 20 30.4907C21.4534 30.4907 22.8769 30.4907 24.3304 30.4158C26.0086 30.3409 27.507 29.9513 28.7207 28.7226C29.9493 27.4939 30.3389 26.0105 30.4139 24.3323C30.5038 22.8939 30.4888 21.4554 30.4888 20.002ZM20 25.3812C17.0182 25.3812 14.6208 22.9838 14.6208 20.002C14.6208 17.0201 17.0182 14.6227 20 14.6227C22.9818 14.6227 25.3792 17.0201 25.3792 20.002C25.3792 22.9838 22.9818 25.3812 20 25.3812ZM25.604 15.6566C24.9147 15.6566 24.3453 15.1022 24.3453 14.398C24.3453 13.6937 24.8998 13.1393 25.604 13.1393C26.3082 13.1393 26.8627 13.6937 26.8627 14.398C26.8664 14.5621 26.8365 14.7252 26.7746 14.8773C26.7128 15.0294 26.6203 15.1671 26.503 15.282C26.3882 15.3993 26.2504 15.4917 26.0983 15.5536C25.9463 15.6155 25.7831 15.6454 25.619 15.6416L25.604 15.6566Z" fill="white"/>
</svg>
