<svg width="40" height="40" viewBox="0 0 40 40" fill="none" xmlns="http://www.w3.org/2000/svg">
<path d="M20.044 40H19.956C8.95238 40 0 31.0476 0 20.044V19.956C0 8.95236 8.95238 0 19.956 0H20.044C31.0476 0 40 8.95236 40 19.956V20.044C40 31.0476 31.0476 40 20.044 40ZM19.956 1.35396C9.69841 1.35396 1.35396 9.69839 1.35396 19.956V20.044C1.35396 30.3016 9.69841 38.646 19.956 38.646H20.044C30.3016 38.646 38.646 30.3016 38.646 20.044V19.956C38.646 9.69839 30.3016 1.35396 20.044 1.35396H19.956Z" fill="white"/>
<path fill-rule="evenodd" clip-rule="evenodd" d="M25.6614 9.49565C21.9332 8.66226 18.0669 8.66226 14.3386 9.49565L13.9369 9.58453C12.8879 9.81837 11.9244 10.3388 11.1536 11.0878C10.3829 11.8368 9.8351 12.785 9.57132 13.8269C8.62792 17.551 8.62792 21.4516 9.57132 25.1757C9.8229 26.1694 10.333 27.0787 11.0498 27.8113C11.7666 28.5439 12.6646 29.0738 13.6525 29.347L14.2035 32.6366C14.2211 32.741 14.2664 32.8389 14.3346 32.9199C14.4029 33.0009 14.4916 33.0622 14.5915 33.0972C14.6915 33.1323 14.799 33.14 14.9029 33.1194C15.0068 33.0988 15.1033 33.0508 15.1824 32.9802L18.4186 30.0853C20.848 30.2319 23.2859 30.0377 25.6614 29.5082L26.0643 29.4193C27.1133 29.1854 28.0769 28.665 28.8476 27.916C29.6184 27.167 30.1661 26.2188 30.4299 25.1769C31.3733 21.4528 31.3733 17.5522 30.4299 13.8281C30.1661 12.786 29.6181 11.8377 28.8471 11.0887C28.0761 10.3397 27.1124 9.81936 26.0632 9.58571L25.6614 9.49565ZM15.3388 13.7309C15.1185 13.6986 14.8939 13.743 14.7024 13.8565H14.6858C14.2415 14.1172 13.8409 14.4455 13.4996 14.8318C13.2152 15.16 13.0612 15.4918 13.0209 15.8118C12.9972 16.0014 13.0138 16.1933 13.0695 16.3747L13.0908 16.3865C13.4108 17.3262 13.8279 18.2304 14.3374 19.0812C14.9948 20.2761 15.8033 21.3813 16.743 22.3696L16.7715 22.4099L16.8165 22.4431L16.8437 22.4751L16.8769 22.5035C17.8688 23.446 18.9766 24.2584 20.1736 24.921C21.5423 25.6663 22.373 26.0183 22.8719 26.1652V26.1723C23.0177 26.2174 23.1504 26.2375 23.2843 26.2375C23.7094 26.207 24.1118 26.0342 24.4266 25.7469C24.8118 25.4056 25.1377 25.0039 25.3912 24.5572V24.5489C25.6294 24.0986 25.5489 23.6743 25.2052 23.3864C24.5155 22.7825 23.769 22.2468 22.9762 21.7866C22.4453 21.4986 21.9061 21.6728 21.6881 21.9644L21.2224 22.5521C20.983 22.8436 20.5493 22.8033 20.5493 22.8033L20.5374 22.8105C17.3012 21.9845 16.4373 18.7079 16.4373 18.7079C16.4373 18.7079 16.397 18.2624 16.6968 18.0349L17.2798 17.5656C17.5595 17.3381 17.7538 16.8001 17.454 16.2692C16.9949 15.4769 16.4604 14.7308 15.8578 14.0414C15.726 13.8795 15.5414 13.7691 15.3364 13.7297M20.8064 12.3065C20.6493 12.3065 20.4986 12.3689 20.3875 12.48C20.2764 12.5912 20.2139 12.7419 20.2139 12.899C20.2139 13.0562 20.2764 13.2069 20.3875 13.318C20.4986 13.4291 20.6493 13.4915 20.8064 13.4915C22.3055 13.4915 23.5497 13.9809 24.5345 14.9195C25.0405 15.4326 25.4351 16.0405 25.6934 16.7065C25.9529 17.3736 26.0714 18.0858 26.0406 18.7992C26.0374 18.877 26.0495 18.9547 26.0762 19.0278C26.103 19.101 26.1439 19.1681 26.1966 19.2254C26.303 19.3412 26.4511 19.41 26.6083 19.4166C26.7654 19.4232 26.9187 19.3671 27.0345 19.2606C27.1503 19.1542 27.2191 19.0061 27.2257 18.849C27.261 17.9715 27.1154 17.0962 26.7979 16.2775C26.4789 15.4546 25.9931 14.7066 25.3711 14.0805L25.3593 14.0686C24.1375 12.9014 22.5911 12.3065 20.8064 12.3065ZM20.7661 14.2547C20.609 14.2547 20.4583 14.3171 20.3472 14.4282C20.2361 14.5393 20.1736 14.69 20.1736 14.8472C20.1736 15.0043 20.2361 15.155 20.3472 15.2661C20.4583 15.3773 20.609 15.4397 20.7661 15.4397H20.7863C21.867 15.5167 22.6539 15.8769 23.2049 16.4683C23.7702 17.0774 24.0628 17.8346 24.0403 18.7707C24.0367 18.9279 24.0957 19.08 24.2042 19.1937C24.3128 19.3074 24.4621 19.3733 24.6192 19.3769C24.7764 19.3805 24.9285 19.3215 25.0422 19.213C25.1558 19.1044 25.2217 18.9551 25.2253 18.798C25.2538 17.5691 24.858 16.5086 24.0735 15.6625V15.6601C23.2713 14.7998 22.1704 14.3447 20.8455 14.2558L20.8254 14.2535L20.7661 14.2547ZM20.7436 16.2396C20.6643 16.2326 20.5844 16.2416 20.5087 16.2662C20.433 16.2907 20.363 16.3303 20.3029 16.3825C20.2428 16.4347 20.1939 16.4985 20.159 16.5701C20.1241 16.6416 20.104 16.7194 20.0998 16.7989C20.0957 16.8784 20.1076 16.958 20.1349 17.0327C20.1622 17.1075 20.2042 17.176 20.2585 17.2342C20.3129 17.2924 20.3784 17.339 20.4511 17.3713C20.5239 17.4036 20.6024 17.4209 20.682 17.4222C21.1773 17.4483 21.4937 17.5976 21.6928 17.7979C21.8931 17.9993 22.0424 18.3228 22.0697 18.8288C22.0711 18.9083 22.0886 18.9867 22.121 19.0593C22.1534 19.132 22.2002 19.1973 22.2584 19.2515C22.3166 19.3057 22.3851 19.3476 22.4599 19.3747C22.5346 19.4019 22.6141 19.4137 22.6935 19.4095C22.7729 19.4053 22.8507 19.3851 22.9221 19.3502C22.9936 19.3153 23.0573 19.2663 23.1094 19.2063C23.1616 19.1463 23.2011 19.0763 23.2256 19.0007C23.2502 18.925 23.2593 18.8452 23.2523 18.766C23.2144 18.055 22.9916 17.4269 22.5354 16.9648C22.0768 16.5026 21.4523 16.2775 20.7436 16.2396Z" fill="white"/>
</svg>
