<svg style="position: absolute; width: 0; height: 0;" width="0" height="0" viewBox="0 0 20 20"
  fill="none" xmlns="http://www.w3.org/2000/svg">
<path d="M10 2.375C6.90186 2.375 4.375 4.90186 4.375 8C4.375 8.87891 4.73145 9.88721 5.21484 10.9883C5.69824 12.0894 6.3208 13.2588 6.95312 14.3477C8.21777 16.5278 9.49219 18.3516 9.49219 18.3516L10 19.0938L10.5078 18.3516C10.5078 18.3516 11.7822 16.5278 13.0469 14.3477C13.6792 13.2588 14.3018 12.0894 14.7852 10.9883C15.2686 9.88721 15.625 8.87891 15.625 8C15.625 4.90186 13.0981 2.375 10 2.375ZM10 3.625C12.4243 3.625 14.375 5.57568 14.375 8C14.375 8.50049 14.1064 9.44775 13.6523 10.4805C13.1982 11.5132 12.5708 12.6582 11.9531 13.7227C10.9717 15.417 10.3613 16.313 10 16.8477C9.63867 16.313 9.02832 15.417 8.04688 13.7227C7.4292 12.6582 6.80176 11.5132 6.34766 10.4805C5.89355 9.44775 5.625 8.50049 5.625 8C5.625 5.57568 7.57568 3.625 10 3.625ZM10 6.75C9.30908 6.75 8.75 7.30908 8.75 8C8.75 8.69092 9.30908 9.25 10 9.25C10.6909 9.25 11.25 8.69092 11.25 8C11.25 7.30908 10.6909 6.75 10 6.75Z" />
</svg>
