<svg style="position: absolute; width: 0; height: 0;" width="0" height="0" viewBox="0 0 24 24"
  fill="none" xmlns="http://www.w3.org/2000/svg">
  <path
    d="M13.1465 3.26403L13.252 3.29333C13.3555 3.33049 13.4508 3.39065 13.5303 3.47008L21.5303 11.4701C21.671 11.611 21.75 11.802 21.75 12.0004C21.7499 12.1989 21.6709 12.3899 21.5303 12.5306L13.5303 20.5306C13.4256 20.6352 13.292 20.7067 13.1465 20.7357C13.0003 20.7647 12.8491 20.7491 12.7129 20.6927C12.5767 20.6363 12.4598 20.5402 12.377 20.4164C12.315 20.3237 12.274 20.219 12.2578 20.1097L12.25 20.0004V16.265L11.4277 16.3441C9.9571 16.4862 8.52395 16.903 7.20605 17.5795C6.06474 18.1654 5.03124 18.9365 4.1416 19.8558L4.10645 19.8207L3.58203 20.4691C3.48437 20.5901 3.35399 20.6769 3.20898 20.7191C3.09715 20.7516 2.97992 20.7573 2.86621 20.7367L2.75391 20.7074C2.60717 20.6563 2.47995 20.5607 2.38965 20.434C2.32191 20.3387 2.27682 20.2297 2.25879 20.1156L2.25 19.9994V18.517L2.2627 17.9808C2.38604 15.4874 3.374 13.1083 5.06445 11.2562C6.77581 9.38143 9.09123 8.17489 11.5986 7.84215L12.25 7.75622V4.00036C12.25 3.85169 12.2938 3.7054 12.376 3.58239C12.4581 3.45967 12.5757 3.36384 12.7129 3.307C12.8506 3.25 13.002 3.23535 13.1465 3.26403ZM13.75 8.50036C13.7499 8.69902 13.6709 8.89002 13.5303 9.03063C13.3903 9.17046 13.1998 9.24938 13 9.24938C10.72 9.25248 8.51979 10.0965 6.82324 11.6195C5.45219 12.8504 4.48702 14.4556 4.03613 16.222L3.55762 18.0961L5.1748 17.0345C7.05121 15.8023 9.20479 15.0427 11.4512 14.8343L11.4629 14.8334L11.4756 14.8324C11.7422 14.7988 12.755 14.7504 13 14.7504C13.1987 14.7504 13.3895 14.8293 13.5303 14.9701C13.671 15.1109 13.75 15.3018 13.75 15.5004V18.1898L19.9395 12.0004L13.75 5.8109V8.50036Z" />
</svg>
  