<svg viewBox="0 0 28 28" fill="none" xmlns="http://www.w3.org/2000/svg">
   <path d="M16.0417 9.91721C16.0415 10.149 15.9494 10.3718 15.7853 10.5359C15.622 10.699 15.3997 10.7911 15.1667 10.7911C12.5066 10.7947 9.93976 11.7794 7.96045 13.5562C6.36089 14.9922 5.23485 16.865 4.70882 18.9258L4.15055 21.1122L6.03727 19.8738C8.22641 18.4362 10.7389 17.5499 13.3597 17.3069L13.3734 17.3057L13.3882 17.3046C13.6992 17.2654 14.8808 17.2089 15.1667 17.2089C15.3985 17.2089 15.6211 17.301 15.7853 17.4652C15.9495 17.6295 16.0417 17.8523 16.0417 18.0839V21.2216L23.2627 14.0005L16.0417 6.77951V9.91721Z" 
   stroke=""
   stroke-width="1.5"
   />
</svg>
  