<svg width="32" height="32" viewBox="0 0 32 32" fill="none" xmlns="http://www.w3.org/2000/svg">
  <path
    d="M17.5286 4.35204L17.6693 4.3911C17.8074 4.44065 17.9344 4.52086 18.0404 4.62678L28.707 15.2934C28.8946 15.4813 29 15.736 29 16.0005C28.9998 16.2651 28.8946 16.5199 28.707 16.7075L18.0404 27.3742C17.9008 27.5135 17.7226 27.609 17.5286 27.6476C17.3338 27.6863 17.1321 27.6655 16.9505 27.5903C16.769 27.5151 16.6131 27.387 16.5026 27.2218C16.42 27.0983 16.3654 26.9586 16.3437 26.813L16.3333 26.6671V21.6867L15.237 21.7921C13.2761 21.9817 11.3653 22.5373 9.60807 23.4393C8.08631 24.2206 6.70831 25.2486 5.52214 26.4744L5.47526 26.4276L4.77604 27.2921C4.64582 27.4534 4.47199 27.5692 4.27865 27.6255C4.12953 27.6688 3.97323 27.6764 3.82161 27.6489L3.67187 27.6099C3.47623 27.5418 3.30661 27.4143 3.1862 27.2453C3.09588 27.1183 3.03576 26.9729 3.01172 26.8208L3 26.6658V24.6893L3.01693 23.9744C3.18139 20.6499 4.49867 17.4777 6.7526 15.0083C9.03442 12.5086 12.1216 10.8999 15.4648 10.4562L16.3333 10.3416V5.33381C16.3334 5.13558 16.3917 4.94053 16.5013 4.77652C16.6108 4.61289 16.7676 4.48512 16.9505 4.40933C17.1342 4.33333 17.3361 4.3138 17.5286 4.35204ZM18.3333 11.3338C18.3332 11.5987 18.2278 11.8534 18.0404 12.0408C17.8538 12.2273 17.5997 12.3325 17.3333 12.3325C14.2933 12.3366 11.3597 13.462 9.09766 15.4927C7.26959 17.1338 5.98269 19.2741 5.38151 21.6294L4.74349 24.1281L6.89974 22.7127C9.40161 21.0698 12.2731 20.0569 15.2682 19.7791L15.2839 19.7778L15.3008 19.7765C15.6563 19.7318 17.0066 19.6671 17.3333 19.6671C17.5983 19.6671 17.8526 19.7724 18.0404 19.9601C18.228 20.1479 18.3333 20.4024 18.3333 20.6671V24.2531L26.5859 16.0005L18.3333 7.74787V11.3338Z"
    fill="#3C589E" />
</svg>
  