<svg width="24" height="24" viewBox="0 0 24 24" fill="none" xmlns="http://www.w3.org/2000/svg">
  <path d="M19.5526 2.99705C19.3006 3.00877 19.0633 3.08201 18.8524 3.16405H18.8494C18.6356 3.24901 17.619 3.67674 16.075 4.3242C14.5311 4.97459 12.5272 5.81834 10.5379 6.65623C6.56526 8.32908 2.65999 9.97557 2.65999 9.97557L2.70686 9.95799C2.70686 9.95799 2.43733 10.0459 2.15608 10.2392C2.01252 10.333 1.85432 10.4619 1.71663 10.664C1.57893 10.8662 1.4676 11.1767 1.50862 11.4961C1.576 12.0381 1.92756 12.3633 2.17952 12.542C2.4344 12.7236 2.67756 12.8086 2.67756 12.8086H2.68342L6.34553 14.042C6.50959 14.5693 7.46174 17.6982 7.69026 18.4189C7.82502 18.8496 7.95686 19.1191 8.12092 19.3242C8.20002 19.4297 8.29377 19.5176 8.4051 19.5879C8.44905 19.6142 8.49592 19.6347 8.5428 19.6523C8.55745 19.6611 8.57209 19.664 8.58967 19.667L8.55159 19.6582C8.5633 19.6611 8.57209 19.6699 8.58088 19.6728C8.61018 19.6816 8.63069 19.6846 8.66877 19.6904C9.24885 19.8662 9.71467 19.5058 9.71467 19.5058L9.74104 19.4853L11.9031 17.5166L15.5272 20.2969L15.6092 20.332C16.3651 20.6631 17.1297 20.4785 17.534 20.1533C17.9412 19.8252 18.0994 19.4062 18.0994 19.4062L18.1258 19.3389L20.9266 4.99217C21.0057 4.63768 21.0262 4.30662 20.9383 3.98436C20.8504 3.66209 20.6248 3.36033 20.3524 3.1992C20.077 3.03514 19.8045 2.98533 19.5526 2.99705ZM19.4764 4.53514C19.4735 4.58201 19.4823 4.57616 19.4617 4.66697V4.67576L16.6873 18.873C16.6756 18.8935 16.6551 18.9375 16.5994 18.9814C16.5408 19.0283 16.494 19.0576 16.2508 18.9609L11.8182 15.5625L9.14045 18.0029L9.70295 14.4111C9.70295 14.4111 16.6463 7.93944 16.9451 7.66112C17.244 7.3828 17.1444 7.3242 17.1444 7.3242C17.1649 6.98436 16.6932 7.22459 16.6932 7.22459L7.56135 12.8818L7.55842 12.8672L3.18147 11.3935V11.3906C3.17854 11.3906 3.17268 11.3877 3.16975 11.3877C3.17268 11.3877 3.19319 11.3789 3.19319 11.3789L3.21663 11.3672L3.24006 11.3584C3.24006 11.3584 7.14827 9.7119 11.1209 8.03905C13.1102 7.20116 15.1141 6.35741 16.6551 5.70701C18.1961 5.05955 19.3358 4.58494 19.4002 4.55858C19.4617 4.53514 19.4324 4.53514 19.4764 4.53514Z" fill="white"/>
</svg>
  