<svg style="position: absolute; width: 0; height: 0;" width="0" height="0" viewBox="0 0 20 20"
  fill="none" xmlns="http://www.w3.org/2000/svg">
  <path d="M16.2938 2.49745C16.0838 2.50722 15.8861 2.56825 15.7103 2.63661H15.7079C15.5296 2.70741 14.6825 3.06386 13.3959 3.60341C12.1092 4.1454 10.4393 4.84853 8.78159 5.54677C5.47105 6.94081 2.21665 8.31288 2.21665 8.31288L2.25572 8.29823C2.25572 8.29823 2.03111 8.37148 1.79673 8.53261C1.6771 8.61073 1.54527 8.71816 1.43052 8.88661C1.31578 9.05507 1.223 9.31386 1.25718 9.57997C1.31333 10.0316 1.6063 10.3026 1.81626 10.4516C2.02867 10.6029 2.2313 10.6737 2.2313 10.6737H2.23619L5.28794 11.7016C5.42466 12.141 6.21812 14.7484 6.40855 15.349C6.52085 15.7079 6.63072 15.9325 6.76743 16.1034C6.83335 16.1913 6.91148 16.2645 7.00425 16.3231C7.04087 16.3451 7.07993 16.3622 7.119 16.3768C7.1312 16.3842 7.14341 16.3866 7.15806 16.3891L7.12632 16.3817C7.13609 16.3842 7.14341 16.3915 7.15074 16.3939C7.17515 16.4013 7.19224 16.4037 7.22398 16.4086C7.70738 16.5551 8.09556 16.2548 8.09556 16.2548L8.11753 16.2377L9.91929 14.5971L12.9393 16.914L13.0077 16.9433C13.6376 17.2191 14.2748 17.0653 14.6117 16.7943C14.951 16.5209 15.0829 16.1718 15.0829 16.1718L15.1048 16.1156L17.4388 4.16005C17.5047 3.86464 17.5218 3.58876 17.4486 3.32021C17.3753 3.05165 17.1874 2.80019 16.9603 2.66591C16.7308 2.52919 16.5038 2.48769 16.2938 2.49745ZM16.2303 3.77919C16.2279 3.81825 16.2352 3.81337 16.2181 3.88905V3.89638L13.9061 15.7274C13.8963 15.7445 13.8792 15.7811 13.8329 15.8178C13.784 15.8568 13.745 15.8812 13.5423 15.8007L9.84849 12.9686L7.61704 15.0023L8.08579 12.0092C8.08579 12.0092 13.8719 6.61611 14.1209 6.38417C14.37 6.15224 14.287 6.10341 14.287 6.10341C14.3041 5.82021 13.911 6.0204 13.911 6.0204L6.30113 10.7348L6.29868 10.7226L2.65122 9.49452V9.49208C2.64878 9.49208 2.6439 9.48964 2.64146 9.48964C2.6439 9.48964 2.66099 9.48232 2.66099 9.48232L2.68052 9.47255L2.70005 9.46523C2.70005 9.46523 5.95689 8.09316 9.26743 6.69911C10.9251 6.00087 12.5951 5.29775 13.8793 4.75575C15.1634 4.2162 16.1131 3.82069 16.1668 3.79872C16.2181 3.77919 16.1937 3.77919 16.2303 3.77919Z" />
</svg>
  