<svg style="position: absolute; width: 0; height: 0;" viewBox="0 0 24 24"
  fill="none" xmlns="http://www.w3.org/2000/svg">
  <path d="M20.1998 10.1002C20.1998 10.3202 20.0198 10.5012 19.7998 10.4902C18.6244 10.4313 17.4764 10.1137 16.4378 9.56018C16.1568 9.41018 15.7998 9.60518 15.7998 9.92418V15.5002C15.7997 16.6698 15.4578 17.8139 14.8161 18.7918C14.1744 19.7697 13.2608 20.5386 12.1878 21.0042C11.1148 21.4697 9.92913 21.6114 8.77663 21.4119C7.62413 21.2125 6.55505 20.6805 5.7009 19.8815C4.84674 19.0825 4.24475 18.0512 3.96897 16.9145C3.69319 15.7779 3.75565 14.5854 4.14865 13.4838C4.54166 12.3822 5.24808 11.4194 6.18103 10.714C7.11398 10.0085 8.23277 9.59116 9.39981 9.51318C9.45196 9.51042 9.50412 9.51845 9.55304 9.53675C9.60195 9.55505 9.64657 9.58324 9.68411 9.61955C9.72164 9.65587 9.75129 9.69953 9.77119 9.74781C9.7911 9.7961 9.80084 9.84797 9.79981 9.90018V12.7002C9.79981 12.9202 9.61981 13.0972 9.40181 13.1332C8.95049 13.2091 8.53028 13.4124 8.19073 13.7193C7.85117 14.0261 7.60642 14.4236 7.48533 14.865C7.36425 15.3063 7.37187 15.7731 7.50731 16.2102C7.64275 16.6474 7.90035 17.0367 8.24975 17.3323C8.59915 17.6278 9.02577 17.8173 9.47933 17.8785C9.93288 17.9396 10.3944 17.8697 10.8096 17.6772C11.2248 17.4846 11.5762 17.1774 11.8226 16.7916C12.0689 16.4059 12.1998 15.9578 12.1998 15.5002V2.90018C12.1998 2.7941 12.2419 2.69235 12.317 2.61734C12.392 2.54233 12.4937 2.50018 12.5998 2.50018H15.3998C15.5068 2.50291 15.6088 2.54541 15.6861 2.61937C15.7634 2.69334 15.8104 2.79346 15.8178 2.90018C15.9113 3.92491 16.361 4.88444 17.0887 5.61195C17.8164 6.33946 18.7761 6.78892 19.8008 6.88218C20.0208 6.90218 20.2008 7.07918 20.2008 7.30018L20.1998 10.1002Z" />
  </svg>
  