<svg width="820" height="380" viewBox="0 0 820 380" fill="none" xmlns="http://www.w3.org/2000/svg">
<path d="M411.08 46.72C410.64 46.26 410.05 46.03 409.47 46C408.88 46.03 408.3 46.26 407.86 46.72L346.79 109.87C345.79 110.9 345.79 112.54 346.79 113.58L350.33 117.24C351.38 118.32 353.12 118.32 354.16 117.24L407.86 61.72C408.3 61.26 408.89 61.03 409.47 61C410.06 61.03 410.64 61.26 411.08 61.72L464.78 117.24C465.83 118.32 467.57 118.32 468.61 117.24L472.15 113.58C473.15 112.55 473.15 110.91 472.15 109.87L411.08 46.72Z" fill="#ECB648"/>
<path d="M458.47 119.9L410.86 70.6696C410.15 69.9396 408.98 69.9396 408.28 70.6696L360.67 119.9C360.35 120.23 360.17 120.68 360.17 121.15V170.75C360.17 171.74 360.97 172.55 361.97 172.55H394.64V123.29H424.3V172.55H457.18C458.17 172.55 458.98 171.75 458.98 170.75V121.15C458.98 120.68 458.8 120.24 458.48 119.9H458.47Z" fill="#ECB648"/>
<path d="M452.3 51.71H433.03V60.01L452.3 79.93V51.71Z" fill="#ECB648"/>
<path d="M267.87 77.9402C267.6 77.6602 267.24 77.5102 266.87 77.4902C266.51 77.5102 266.15 77.6502 265.87 77.9402L228.16 116.93C227.54 117.57 227.54 118.58 228.16 119.22L230.35 121.48C231 122.15 232.07 122.15 232.72 121.48L265.88 87.2003C266.15 86.9203 266.51 86.7702 266.88 86.7502C267.24 86.7702 267.6 86.9103 267.88 87.2003L301.04 121.48C301.69 122.15 302.76 122.15 303.41 121.48L305.6 119.22C306.22 118.58 306.22 117.57 305.6 116.93L267.89 77.9402H267.87Z" fill="#E9EAEC"/>
<path d="M297.13 123.13L267.73 92.7301C267.29 92.2801 266.57 92.2801 266.14 92.7301L236.74 123.13C236.54 123.34 236.43 123.61 236.43 123.9V154.53C236.43 155.14 236.93 155.64 237.54 155.64H257.71V125.22H276.02V155.64H296.33C296.94 155.64 297.44 155.14 297.44 154.53V123.9C297.44 123.61 297.33 123.34 297.13 123.13Z" fill="#E9EAEC"/>
<path d="M293.32 81.0303H281.43V86.1503L293.32 98.4503V81.0303Z" fill="#E9EAEC"/>
<path d="M153.2 77.9402C152.93 77.6602 152.57 77.5102 152.2 77.4902C151.84 77.5102 151.48 77.6502 151.2 77.9402L113.49 116.93C112.87 117.57 112.87 118.58 113.49 119.22L115.68 121.48C116.33 122.15 117.4 122.15 118.05 121.48L151.21 87.2003C151.48 86.9203 151.84 86.7702 152.21 86.7502C152.57 86.7702 152.93 86.9103 153.21 87.2003L186.37 121.48C187.02 122.15 188.09 122.15 188.74 121.48L190.93 119.22C191.55 118.58 191.55 117.57 190.93 116.93L153.22 77.9402H153.2Z" fill="#E9EAEC"/>
<path d="M182.47 123.13L153.07 92.7301C152.63 92.2801 151.91 92.2801 151.48 92.7301L122.08 123.13C121.88 123.34 121.77 123.61 121.77 123.9V154.53C121.77 155.14 122.27 155.64 122.88 155.64H143.05V125.22H161.36V155.64H181.67C182.28 155.64 182.78 155.14 182.78 154.53V123.9C182.78 123.61 182.67 123.34 182.47 123.13Z" fill="#E9EAEC"/>
<path d="M178.66 81.0303H166.76V86.1503L178.66 98.4503V81.0303Z" fill="#E9EAEC"/>
<path d="M663.49 77.9402C663.22 77.6602 662.86 77.5102 662.49 77.4902C662.13 77.5102 661.77 77.6502 661.49 77.9402L623.78 116.93C623.16 117.57 623.16 118.58 623.78 119.22L625.97 121.48C626.62 122.15 627.69 122.15 628.34 121.48L661.5 87.2003C661.77 86.9203 662.13 86.7702 662.5 86.7502C662.86 86.7702 663.22 86.9103 663.5 87.2003L696.66 121.48C697.31 122.15 698.38 122.15 699.03 121.48L701.22 119.22C701.84 118.58 701.84 117.57 701.22 116.93L663.51 77.9402H663.49Z" fill="#E9EAEC"/>
<path d="M692.75 123.13L663.35 92.7301C662.91 92.2801 662.19 92.2801 661.76 92.7301L632.36 123.13C632.16 123.34 632.05 123.61 632.05 123.9V154.53C632.05 155.14 632.55 155.64 633.16 155.64H653.33V125.22H671.64V155.64H691.95C692.56 155.64 693.06 155.14 693.06 154.53V123.9C693.06 123.61 692.95 123.34 692.75 123.13Z" fill="#E9EAEC"/>
<path d="M688.94 81.0303H677.04V86.1503L688.94 98.4503V81.0303Z" fill="#E9EAEC"/>
<path d="M778.49 77.9402C778.22 77.6602 777.86 77.5102 777.49 77.4902C777.13 77.5102 776.77 77.6502 776.49 77.9402L738.78 116.93C738.16 117.57 738.16 118.58 738.78 119.22L740.97 121.48C741.62 122.15 742.69 122.15 743.34 121.48L776.5 87.2003C776.77 86.9203 777.13 86.7702 777.5 86.7502C777.86 86.7702 778.22 86.9103 778.5 87.2003L811.66 121.48C812.31 122.15 813.38 122.15 814.03 121.48L816.22 119.22C816.84 118.58 816.84 117.57 816.22 116.93L778.51 77.9402H778.49Z" fill="#E9EAEC"/>
<path d="M807.75 123.13L778.35 92.7301C777.91 92.2801 777.19 92.2801 776.76 92.7301L747.36 123.13C747.16 123.34 747.05 123.61 747.05 123.9V154.53C747.05 155.14 747.55 155.64 748.16 155.64H768.33V125.22H786.64V155.64H806.95C807.56 155.64 808.06 155.14 808.06 154.53V123.9C808.06 123.61 807.95 123.34 807.75 123.13Z" fill="#E9EAEC"/>
<path d="M803.94 81.0303H792.04V86.1503L803.94 98.4503V81.0303Z" fill="#E9EAEC"/>
<path d="M43.4899 77.9402C43.2199 77.6602 42.8599 77.5102 42.4899 77.4902C42.1299 77.5102 41.7699 77.6502 41.4899 77.9402L3.77994 116.93C3.15994 117.57 3.15994 118.58 3.77994 119.22L5.96994 121.48C6.61994 122.15 7.68994 122.15 8.33994 121.48L41.4999 87.2003C41.7699 86.9203 42.1299 86.7702 42.4999 86.7502C42.8599 86.7702 43.2199 86.9103 43.4999 87.2003L76.6599 121.48C77.3099 122.15 78.3799 122.15 79.0299 121.48L81.2199 119.22C81.8399 118.58 81.8399 117.57 81.2199 116.93L43.5099 77.9402H43.4899Z" fill="#E9EAEC"/>
<path d="M72.7498 123.13L43.3498 92.7301C42.9098 92.2801 42.1898 92.2801 41.7598 92.7301L12.3598 123.13C12.1598 123.34 12.0498 123.61 12.0498 123.9V154.53C12.0498 155.14 12.5498 155.64 13.1598 155.64H33.3298V125.22H51.6398V155.64H71.9498C72.5598 155.64 73.0598 155.14 73.0598 154.53V123.9C73.0598 123.61 72.9498 123.34 72.7498 123.13Z" fill="#E9EAEC"/>
<path d="M68.94 81.0303H57.04V86.1503L68.94 98.4503V81.0303Z" fill="#E9EAEC"/>
<path d="M548.82 77.9402C548.55 77.6602 548.19 77.5102 547.82 77.4902C547.46 77.5102 547.1 77.6502 546.82 77.9402L509.11 116.93C508.49 117.57 508.49 118.58 509.11 119.22L511.3 121.48C511.95 122.15 513.02 122.15 513.67 121.48L546.83 87.2003C547.1 86.9203 547.46 86.7702 547.83 86.7502C548.19 86.7702 548.55 86.9103 548.83 87.2003L581.99 121.48C582.64 122.15 583.71 122.15 584.36 121.48L586.55 119.22C587.17 118.58 587.17 117.57 586.55 116.93L548.84 77.9402H548.82Z" fill="#E9EAEC"/>
<path d="M578.08 123.13L548.68 92.7301C548.24 92.2801 547.52 92.2801 547.09 92.7301L517.69 123.13C517.49 123.34 517.38 123.61 517.38 123.9V154.53C517.38 155.14 517.88 155.64 518.49 155.64H538.66V125.22H556.97V155.64H577.28C577.89 155.64 578.39 155.14 578.39 154.53V123.9C578.39 123.61 578.28 123.34 578.08 123.13Z" fill="#E9EAEC"/>
<path d="M574.27 81.0303H562.38V86.1503L574.27 98.4503V81.0303Z" fill="#E9EAEC"/>
<path d="M474.33 205.649L497.932 229.225C496.634 232.769 495.932 236.593 495.935 240.583L622.192 366.684C626.705 371.191 633.427 372.807 639.424 370.629C639.459 370.612 639.498 370.599 639.537 370.586C641.814 369.747 643.966 368.668 645.973 367.38C647.56 366.359 649.052 365.208 650.438 363.936C650.805 363.605 651.16 363.263 651.511 362.912C654.867 359.553 657.501 355.468 659.172 350.919C659.185 350.883 659.198 350.848 659.211 350.812C661.39 344.812 659.767 338.087 655.254 333.577L529 207.486C525.01 207.492 521.182 208.201 517.641 209.502L494.039 185.926L489.181 181.074L483.493 186.768L482.612 187.649L476.043 194.225L469.475 200.8L474.33 205.649Z" fill="#E9EAEC"/>
<path d="M329.521 196.491C349.504 216.451 375.259 227.107 401.407 228.457C403.205 228.558 405 228.603 406.799 228.606C410.863 228.619 414.935 228.405 418.983 227.969C419.162 227.95 419.341 227.933 419.52 227.911C420.317 227.819 421.11 227.725 421.907 227.618C422.082 227.592 422.264 227.566 422.443 227.543C426.479 226.974 430.485 226.187 434.449 225.172C436.205 224.724 437.948 224.229 439.681 223.693C451.977 219.888 463.735 213.872 474.33 205.648C477.969 202.829 481.468 199.749 484.808 196.406C486.16 195.054 487.471 193.672 488.739 192.267C490.596 190.205 492.365 188.088 494.04 185.926C527.397 142.835 524.288 80.6401 484.723 41.1201C444.442 0.884817 380.702 -1.54759 337.592 33.8099C337.583 33.8132 337.576 33.8197 337.57 33.8262C334.767 36.1253 332.051 38.5837 329.437 41.2014C326.851 43.7899 324.422 46.4727 322.153 49.2433C286.733 92.3988 289.201 156.217 329.521 196.491ZM318.202 144.09C309.366 112.928 317.206 78.0353 341.725 53.4837C344.252 50.9538 346.889 48.5994 349.624 46.4239C385.892 17.5409 438.852 19.8627 472.444 53.4154C497.207 78.1524 504.998 113.429 495.835 144.803C492.176 157.348 485.799 169.273 476.704 179.653C475.367 181.181 473.972 182.674 472.515 184.131C462.402 194.254 450.523 201.541 437.87 205.993C436.147 206.604 434.404 207.157 432.654 207.658C428.684 208.796 424.651 209.661 420.586 210.259C420.434 210.282 420.278 210.302 420.125 210.324C419.338 210.435 418.548 210.536 417.757 210.627C417.608 210.646 417.455 210.663 417.305 210.676C413.221 211.124 409.114 211.306 405.017 211.212C403.208 211.173 401.41 211.082 399.612 210.929C378.533 209.222 357.93 200.312 341.797 184.199C330.227 172.642 322.364 158.786 318.202 144.09Z" fill="#E9EAEC"/>
<g style="mix-blend-mode:multiply" opacity="0.05">
<path d="M341.061 184.937C377.583 221.423 436.77 221.39 473.253 184.865C509.736 148.344 509.703 89.1598 473.181 52.6739C436.656 16.1912 377.472 16.2237 340.99 52.7454C304.504 89.2704 304.536 148.458 341.061 184.937ZM318.201 144.09C309.362 112.924 317.206 78.0319 341.725 53.4804C377.804 17.3652 436.321 17.3326 472.443 53.4121C497.206 78.1457 505.001 113.422 495.834 144.796C491.636 159.192 483.86 172.765 472.511 184.124C436.432 220.239 377.915 220.272 341.796 184.196C330.226 172.638 322.366 158.779 318.201 144.087V144.09Z" fill="#999999"/>
</g>
<g style="mix-blend-mode:lighten" opacity="0.3">
<path d="M462.855 64.6144C465.99 58.0472 459.705 48.5096 448.817 43.3115C437.929 38.1135 426.561 39.2235 423.426 45.7907C420.291 52.3579 426.576 61.8955 437.464 67.0935C448.352 72.2915 459.72 71.1816 462.855 64.6144Z" fill="white"/>
</g>
<g style="mix-blend-mode:lighten" opacity="0.1">
<path d="M341.8 184.199C377.918 220.279 436.435 220.246 472.515 184.128C483.864 172.769 491.639 159.196 495.837 144.8C479.854 127.887 452.353 114.691 419.965 110.476C373.232 104.402 331.553 119 318.204 144.091C322.37 158.783 330.233 172.642 341.8 184.199Z" fill="white"/>
</g>
</svg>
